<svg xmlns="http://www.w3.org/2000/svg" viewBox="0 0 32 32" width="32" height="32">
  <defs>
    <linearGradient id="grad1" x1="0%" y1="0%" x2="100%" y2="100%">
      <stop offset="0%" style="stop-color:#00ff88;stop-opacity:1" />
      <stop offset="100%" style="stop-color:#00cc66;stop-opacity:1" />
    </linearGradient>
    <filter id="glow">
      <feGaussianBlur stdDeviation="2" result="coloredBlur"/>
      <feMerge> 
        <feMergeNode in="coloredBlur"/>
        <feMergeNode in="SourceGraphic"/>
      </feMerge>
    </filter>
  </defs>
  
  <!-- Cercle de fond -->
  <circle cx="16" cy="16" r="15" fill="url(#grad1)" stroke="#1e1e1e" stroke-width="1"/>
  
  <!-- Icône de workflow/automatisation -->
  <g fill="#1e1e1e" filter="url(#glow)">
    <!-- Premier nœud -->
    <circle cx="8" cy="12" r="2" fill="#1e1e1e"/>
    <rect x="7" y="11" width="2" height="2" fill="#00ff88"/>
    
    <!-- Deuxième nœud -->
    <circle cx="16" cy="8" r="2" fill="#1e1e1e"/>
    <rect x="15" y="7" width="2" height="2" fill="#00ff88"/>
    
    <!-- Troisième nœud -->
    <circle cx="24" cy="12" r="2" fill="#1e1e1e"/>
    <rect x="23" y="11" width="2" height="2" fill="#00ff88"/>
    
    <!-- Quatrième nœud -->
    <circle cx="8" cy="20" r="2" fill="#1e1e1e"/>
    <rect x="7" y="19" width="2" height="2" fill="#00ff88"/>
    
    <!-- Cinquième nœud -->
    <circle cx="16" cy="24" r="2" fill="#1e1e1e"/>
    <rect x="15" y="23" width="2" height="2" fill="#00ff88"/>
    
    <!-- Sixième nœud -->
    <circle cx="24" cy="20" r="2" fill="#1e1e1e"/>
    <rect x="23" y="19" width="2" height="2" fill="#00ff88"/>
    
    <!-- Connexions -->
    <path d="M10 12 L14 8" stroke="#00ff88" stroke-width="1.5" fill="none"/>
    <path d="M18 8 L22 12" stroke="#00ff88" stroke-width="1.5" fill="none"/>
    <path d="M10 20 L14 24" stroke="#00ff88" stroke-width="1.5" fill="none"/>
    <path d="M18 24 L22 20" stroke="#00ff88" stroke-width="1.5" fill="none"/>
    <path d="M16 10 L16 22" stroke="#00ff88" stroke-width="1.5" fill="none"/>
    
    <!-- Flèches animées -->
    <path d="M12 10 L11 9 L12 8 L13 9 Z" fill="#00ff88"/>
    <path d="M20 10 L19 9 L20 8 L21 9 Z" fill="#00ff88"/>
    <path d="M12 22 L11 21 L12 20 L13 21 Z" fill="#00ff88"/>
    <path d="M20 22 L19 21 L20 20 L21 21 Z" fill="#00ff88"/>
    <path d="M15 12 L14 11 L15 10 L16 11 Z" fill="#00ff88"/>
    <path d="M17 12 L16 11 L17 10 L18 11 Z" fill="#00ff88"/>
  </g>
</svg> 